<svg xmlns="http://www.w3.org/2000/svg" width="29" height="29" viewBox="0 0 29 29">
    <g fill="none" fill-rule="evenodd">
        <g>
            <g>
                <g transform="translate(-1139 -519) translate(740 503) translate(399 15.5)">
                    <circle cx="14.5" cy="15" r="13.5" fill="#FDDDDB"/>
                    <path fill="#E6584E" fill-rule="nonzero" d="M15.461 16.716l.357-6.273.085-2.363h-2.516l.085 2.363.357 6.273h1.632zm-.816 4.522c.442 0 .813-.156 1.114-.468.3-.311.45-.7.45-1.164 0-.465-.15-.853-.45-1.165-.3-.311-.672-.467-1.114-.467-.442 0-.81.156-1.105.468-.295.311-.442.7-.442 1.164 0 .465.147.853.442 1.164.295.312.663.468 1.105.468z"/>
                </g>
            </g>
        </g>
    </g>
</svg>
