<svg xmlns="http://www.w3.org/2000/svg" width="25" height="25"><rect id="backgroundrect" width="100%" height="100%" x="0" y="0" fill="none" stroke="none"/>
    
<g class="currentLayer" style=""><title>Layer 1</title><g fill="none" fill-rule="evenodd" id="svg_1" class="">
        <g fill="#FC0" id="svg_2">
            <path d="M-467.5,-1636.4549560546875 c4.694,0 8.5,3.806 8.5,8.5 c0,3.13 -2.833,7.6 -8.5,13.41 C-473.167,-1620.3549560546876 -476,-1624.8249560546874 -476,-1627.9549560546875 C-476,-1632.6489560546875 -472.194,-1636.4549560546875 -467.5,-1636.4549560546875 zm0,3.579 c-2.224,0 -4.026,1.803 -4.026,4.026 c0,2.224 1.802,4.027 4.026,4.027 c2.224,0 4.026,-1.803 4.026,-4.027 c0,-2.223 -1.802,-4.026 -4.026,-4.026 z" transform="translate(480,1638) " id="svg_3"/>
        </g>
    </g></g></svg>