<svg width="111" height="47" xmlns="http://www.w3.org/2000/svg">
 <g>
  <g id="svg_1" fill-rule="evenodd" fill="none">
   <g id="svg_2" fill-rule="nonzero">
    <g id="svg_3">
     <g id="svg_4">
      <path id="svg_5" transform="translate(0, 605) translate(393, 18)" d="m-381.362,-590.916c1.426,0 2.7,-0.292 3.82,-0.877c1.12,-0.585 1.987,-1.422 2.6,-2.512l-2.17,-1.368c-0.495,0.753 -1.11,1.318 -1.842,1.695c-0.734,0.376 -1.546,0.565 -2.438,0.565c-1.03,0 -1.957,-0.228 -2.78,-0.684c-0.822,-0.456 -1.466,-1.105 -1.932,-1.947c-0.466,-0.843 -0.699,-1.819 -0.699,-2.929c0,-1.09 0.233,-2.056 0.699,-2.898c0.466,-0.843 1.11,-1.492 1.932,-1.947c0.823,-0.456 1.75,-0.684 2.78,-0.684c0.892,0 1.704,0.188 2.438,0.565c0.733,0.376 1.347,0.941 1.843,1.694l2.17,-1.397c-0.614,-1.09 -1.482,-1.923 -2.601,-2.497c-1.12,-0.575 -2.394,-0.862 -3.82,-0.862c-1.606,0 -3.038,0.341 -4.296,1.025c-1.259,0.684 -2.245,1.635 -2.958,2.854c-0.714,1.22 -1.07,2.601 -1.07,4.147c0,1.546 0.356,2.929 1.07,4.148c0.713,1.218 1.7,2.175 2.958,2.868c1.258,0.694 2.69,1.04 4.296,1.04l0,0.001zm16.522,0c1.565,0 2.968,-0.347 4.206,-1.04c1.24,-0.694 2.21,-1.65 2.914,-2.87c0.703,-1.218 1.055,-2.6 1.055,-4.147c0,-1.546 -0.352,-2.928 -1.055,-4.147c-0.704,-1.219 -1.675,-2.17 -2.914,-2.854c-1.238,-0.684 -2.64,-1.025 -4.206,-1.025c-1.566,0 -2.973,0.341 -4.222,1.025c-1.248,0.684 -2.224,1.635 -2.928,2.854c-0.704,1.22 -1.055,2.601 -1.055,4.147c0,1.546 0.351,2.929 1.055,4.148c0.704,1.218 1.68,2.175 2.928,2.868c1.249,0.694 2.656,1.04 4.222,1.04l0,0.001zm0,-2.497c-1.011,0 -1.918,-0.233 -2.72,-0.699c-0.803,-0.466 -1.437,-1.12 -1.903,-1.962c-0.466,-0.842 -0.699,-1.809 -0.699,-2.899s0.233,-2.056 0.699,-2.898c0.466,-0.843 1.1,-1.492 1.903,-1.947c0.802,-0.456 1.709,-0.684 2.72,-0.684c1.01,0 1.917,0.228 2.72,0.684c0.803,0.455 1.432,1.104 1.888,1.947c0.456,0.842 0.683,1.808 0.683,2.898s-0.227,2.057 -0.683,2.899c-0.456,0.842 -1.085,1.496 -1.888,1.962c-0.803,0.466 -1.71,0.699 -2.72,0.699zm30.689,2.319l0,-22.06l-2.854,0l0,22.06l2.854,0zm9.952,0.178c1.209,0 2.254,-0.193 3.136,-0.58c0.882,-0.386 1.561,-0.946 2.037,-1.68l0,2.082l2.705,0l0,-9.514c0,-2.12 -0.58,-3.716 -1.74,-4.786c-1.159,-1.07 -2.828,-1.605 -5.008,-1.605c-1.269,0 -2.468,0.173 -3.598,0.52c-1.13,0.347 -2.1,0.847 -2.913,1.501l1.19,2.14c0.613,-0.515 1.367,-0.926 2.258,-1.233c0.892,-0.307 1.804,-0.46 2.736,-0.46c1.387,0 2.437,0.326 3.15,0.98c0.714,0.654 1.071,1.596 1.071,2.824l0,0.565l-4.519,0c-2.2,0 -3.805,0.421 -4.816,1.264c-1.01,0.842 -1.516,1.957 -1.516,3.344c0,1.388 0.53,2.507 1.59,3.36c1.06,0.852 2.473,1.278 4.237,1.278zm0.476,-2.2c-1.09,0 -1.943,-0.228 -2.557,-0.684c-0.615,-0.456 -0.922,-1.08 -0.922,-1.873c0,-1.625 1.21,-2.437 3.627,-2.437l4.4,0l0,2.2c-0.357,0.891 -0.931,1.58 -1.724,2.066c-0.793,0.485 -1.734,0.728 -2.824,0.728zm18.008,2.2c0.654,0 1.288,-0.094 1.903,-0.283c0.614,-0.188 1.13,-0.46 1.546,-0.817l-0.892,-2.051c-0.615,0.495 -1.358,0.743 -2.23,0.743c-0.793,0 -1.402,-0.228 -1.828,-0.684c-0.426,-0.456 -0.64,-1.11 -0.64,-1.962l0,-8.532l4.52,0l0,-2.349l-4.52,0l0,-3.448l-2.853,0l0,3.448l-2.676,0l0,2.349l2.676,0l0,8.65c0,1.586 0.436,2.805 1.308,3.658c0.872,0.852 2.1,1.278 3.686,1.278zm13.282,0c1.308,0 2.492,-0.218 3.553,-0.654c1.06,-0.436 1.947,-1.07 2.66,-1.903l-1.575,-1.843c-1.15,1.268 -2.666,1.903 -4.549,1.903c-1.546,0 -2.839,-0.421 -3.88,-1.264c-1.04,-0.842 -1.65,-1.957 -1.828,-3.344l12.784,0c0.04,-0.357 0.06,-0.644 0.06,-0.862c0,-1.586 -0.333,-2.993 -0.997,-4.222c-0.664,-1.229 -1.585,-2.185 -2.765,-2.869c-1.179,-0.684 -2.522,-1.025 -4.028,-1.025c-1.506,0 -2.859,0.341 -4.058,1.025c-1.199,0.684 -2.14,1.64 -2.824,2.87c-0.684,1.228 -1.026,2.605 -1.026,4.131c0,1.546 0.352,2.934 1.056,4.162c0.703,1.23 1.7,2.185 2.987,2.87c1.289,0.683 2.765,1.025 4.43,1.025zm4.49,-9.157l-10.11,0c0.159,-1.347 0.699,-2.437 1.62,-3.27c0.922,-0.832 2.067,-1.248 3.434,-1.248c1.368,0 2.512,0.42 3.434,1.263c0.921,0.842 1.462,1.928 1.62,3.255l0.002,0z" fill="#494642"/>
      <path id="svg_6" transform="translate(0, 605) translate(393, 18)" d="m-347.114,-609.687c-3.933,0 -7.225,5.745 -7.225,11.009l0.002,0.2c0.062,3.443 1.736,5.607 4.544,6.398l0.11,0.03l-0.031,0.282c-0.165,1.512 -0.253,3.242 -0.253,5.045l0.001,0.492l0.006,0.483l0.014,0.71l0.006,0.233l0.025,0.684l0.02,0.444l0.026,0.435l0.028,0.426l0.032,0.415l0.036,0.405l0.04,0.395l0.021,0.193l0.046,0.378l0.05,0.367l0.053,0.355l0.029,0.173l0.06,0.338c0.02,0.11 0.041,0.218 0.063,0.324l0.068,0.313l0.072,0.3l0.077,0.286c0.46,1.63 1.139,2.574 2.08,2.574c0.957,0 1.641,-0.965 2.1,-2.635l0.075,-0.293c0.05,-0.2 0.096,-0.409 0.14,-0.626l0.063,-0.333l0.06,-0.346l0.054,-0.357l0.051,-0.37l0.047,-0.382l0.042,-0.393l0.04,-0.405l0.034,-0.415l0.031,-0.426l0.027,-0.436l0.024,-0.446l0.02,-0.456l0.016,-0.466l0.013,-0.474l0.012,-0.729l0.004,-0.496l0,-0.236l-0.001,-0.415c-0.013,-1.655 -0.1,-3.238 -0.252,-4.633l-0.032,-0.282l0.11,-0.03c2.863,-0.807 4.547,-3.039 4.547,-6.598c0,-1.592 -0.3,-3.227 -0.83,-4.734l-0.125,-0.346c-1.257,-3.316 -3.618,-5.929 -6.27,-5.929zm0,2.21c2.383,0 5.016,4.594 5.016,8.799c0,2.896 -1.314,4.314 -3.829,4.655l-1.114,0.15l0.171,1.112c0.256,1.664 0.4,3.787 0.4,6.038l0,0.232c-0.01,2.472 -0.196,4.772 -0.507,6.444l-0.034,0.177l-0.07,0.334l-0.033,0.146l-0.01,-0.04c-0.048,-0.212 -0.095,-0.442 -0.14,-0.69c-0.313,-1.72 -0.494,-4.08 -0.494,-6.603c0,-2.25 0.144,-4.374 0.4,-6.038l0.17,-1.112l-1.114,-0.15c-2.514,-0.341 -3.828,-1.76 -3.828,-4.655c0,-4.205 2.633,-8.8 5.016,-8.8l0,0.001z" fill="#FC0"/>
     </g>
    </g>
   </g>
  </g>
 </g>
</svg>
