<svg xmlns="http://www.w3.org/2000/svg" width="1749" height="595" viewBox="0 0 1749 595">
    <g fill="none" fill-rule="evenodd">
        <g>
            <g>
                <path fill="#06AEA7" d="M44.764 508.893c18.369-4.636 26.896-15.682 26.896-33.514s-34.701-24.004-50.426-11.97C5.509 475.443 1 482.165 1 493.21s25.395 20.318 43.764 15.682z" transform="translate(-63) translate(63.383 -33.879)"/>
                <path fill="#2399DC" d="M1720.764 238.893c18.369-4.636 26.896-15.682 26.896-33.514s-34.701-24.004-50.426-11.97C1681.509 205.443 1677 212.165 1677 223.21s25.395 20.318 43.764 15.682z" transform="translate(-63) translate(63.383 -33.879)"/>
                <path fill="#F49D7D" d="M253.537 30.526c-4.074-13.593-12.58-44.09-36.813-23.702-24.234 20.387-11.49 45.6 0 56.444 11.49 10.845 35.567 16.414 43.185 2.947 7.618-13.468-3.868-27.334-6.372-35.689z" transform="translate(-63) translate(63.383 -33.879)"/>
                <path fill="#FC0" d="M530.537 417.526c-4.074-13.593-12.58-44.09-36.813-23.702-24.234 20.387-11.49 45.6 0 56.444 11.49 10.845 35.567 16.414 43.185 2.947 7.618-13.468-3.868-27.334-6.372-35.689z" transform="translate(-63) translate(63.383 -33.879) rotate(-96 509.703 424.065)"/>
                <path fill="#D8D8D8" d="M1472.821 592.716s-12.582 31.006 17.55 34.044c20.089 2.026 28.903-8.223 26.441-30.746-3.489-14.234-11.051-20.472-22.686-18.713-17.452 2.638-21.305 15.415-21.305 15.415z" transform="translate(-63) translate(63.383 -33.879)"/>
            </g>
        </g>
    </g>
</svg>
