<svg width="108" height="91" viewBox="0 0 108 91" fill="none" xmlns="http://www.w3.org/2000/svg">
<path fill-rule="evenodd" clip-rule="evenodd" d="M10.954 5.50297C10.5727 1.6729 14.4805 -1.13367 17.9881 0.451141L30.7476 6.21619C37.7897 2.85137 45.6748 0.96743 54 0.96743C63.5357 0.96743 72.4941 3.43907 80.2695 7.77665C80.7408 7.31456 81.3195 6.93475 81.9995 6.67572L93.8373 2.16598C97.4342 0.795733 101.166 3.83302 100.554 7.6331L98.5404 20.1398C98.3761 21.1607 97.9314 22.0308 97.3111 22.7106C104.025 31.711 108 42.8751 108 54.9674C108 84.7908 83.8234 90.4531 54 90.4531C24.1766 90.4531 0 84.7908 0 54.9674C0 41.8162 4.70125 29.763 12.5148 20.3968C12.4356 20.1148 12.3793 19.8198 12.3487 19.5128L10.954 5.50297Z" fill="#C9DBFF"/>
<g filter="url(#filter0_d_9_87)">
<path fill-rule="evenodd" clip-rule="evenodd" d="M55.5428 18.7103C54.2647 18.7103 53.2285 19.7464 53.2285 21.0246V61.9103C53.2285 63.1884 54.2647 64.2246 55.5428 64.2246C55.9835 64.2246 56.3954 64.1014 56.746 63.8876C57.0206 63.8449 57.292 63.7517 57.5471 63.6045L80.5966 50.2968C81.7035 49.6577 82.0828 48.2423 81.4437 47.1354C80.8046 46.0285 79.3893 45.6493 78.2824 46.2883L57.8571 58.0809V21.0246C57.8571 19.7464 56.8209 18.7103 55.5428 18.7103Z" fill="#4880EE"/>
<path fill-rule="evenodd" clip-rule="evenodd" d="M55.5428 18.7103C54.2647 18.7103 53.2285 19.7464 53.2285 21.0246V61.9103C53.2285 63.1884 54.2647 64.2246 55.5428 64.2246C55.9835 64.2246 56.3954 64.1014 56.746 63.8876C57.0206 63.8449 57.292 63.7517 57.5471 63.6045L80.5966 50.2968C81.7035 49.6577 82.0828 48.2423 81.4437 47.1354C80.8046 46.0285 79.3893 45.6493 78.2824 46.2883L57.8571 58.0809V21.0246C57.8571 19.7464 56.8209 18.7103 55.5428 18.7103Z" fill="#4880EE"/>
<path fill-rule="evenodd" clip-rule="evenodd" d="M55.5428 18.7103C54.2647 18.7103 53.2285 19.7464 53.2285 21.0246V61.9103C53.2285 63.1884 54.2647 64.2246 55.5428 64.2246C55.9835 64.2246 56.3954 64.1014 56.746 63.8876C57.0206 63.8449 57.292 63.7517 57.5471 63.6045L80.5966 50.2968C81.7035 49.6577 82.0828 48.2423 81.4437 47.1354C80.8046 46.0285 79.3893 45.6493 78.2824 46.2883L57.8571 58.0809V21.0246C57.8571 19.7464 56.8209 18.7103 55.5428 18.7103Z" fill="#4880EE"/>
<path fill-rule="evenodd" clip-rule="evenodd" d="M55.5428 18.7103C54.2647 18.7103 53.2285 19.7464 53.2285 21.0246V61.9103C53.2285 63.1884 54.2647 64.2246 55.5428 64.2246C55.9835 64.2246 56.3954 64.1014 56.746 63.8876C57.0206 63.8449 57.292 63.7517 57.5471 63.6045L80.5966 50.2968C81.7035 49.6577 82.0828 48.2423 81.4437 47.1354C80.8046 46.0285 79.3893 45.6493 78.2824 46.2883L57.8571 58.0809V21.0246C57.8571 19.7464 56.8209 18.7103 55.5428 18.7103Z" fill="#4880EE"/>
</g>
<defs>
<filter id="filter0_d_9_87" x="46.2285" y="12.7103" width="48.5256" height="65.5143" filterUnits="userSpaceOnUse" color-interpolation-filters="sRGB">
<feFlood flood-opacity="0" result="BackgroundImageFix"/>
<feColorMatrix in="SourceAlpha" type="matrix" values="0 0 0 0 0 0 0 0 0 0 0 0 0 0 0 0 0 0 127 0" result="hardAlpha"/>
<feOffset dx="3" dy="4"/>
<feGaussianBlur stdDeviation="5"/>
<feComposite in2="hardAlpha" operator="out"/>
<feColorMatrix type="matrix" values="0 0 0 0 0.282353 0 0 0 0 0.501961 0 0 0 0 0.933333 0 0 0 1 0"/>
<feBlend mode="normal" in2="BackgroundImageFix" result="effect1_dropShadow_9_87"/>
<feBlend mode="normal" in="SourceGraphic" in2="effect1_dropShadow_9_87" result="shape"/>
</filter>
</defs>
</svg>
